<mxfile host="app.diagrams.net" modified="2024-03-01T03:19:42.271Z" agent="Mozilla/5.0 (Windows NT 10.0; Win64; x64) AppleWebKit/537.36 (KHTML, like Gecko) Chrome/122.0.0.0 Safari/537.36 Edg/122.0.0.0" version="22.1.17" etag="f3_kRaeWn3BYMskcv5t-" type="github">
  <diagram name="第 1 页" id="RS_493Va_03Q-NZ9Wu7s">
    <mxGraphModel>
      <root>
        <mxCell id="0" />
        <mxCell id="1" parent="0" />
      </root>
    </mxGraphModel>
  </diagram>
</mxfile>
